<?xml version="1.0" encoding="UTF-8"?>
<svg id="_레이어_2" data-name="레이어 2" xmlns="http://www.w3.org/2000/svg" viewBox="0 0 117 90">
  <defs>
    <style>
      .cls-1 {
        fill: #222;
      }
    </style>
  </defs>
  <g id="_최종" data-name="최종">
    <g>
      <path class="cls-1" d="M50.01,90c-1.64,0-3.25-.81-4.21-2.29-1.5-2.32-.83-5.42,1.49-6.91l55.49-35.8L47.29,9.2c-2.32-1.5-2.99-4.59-1.49-6.91,1.5-2.32,4.59-2.99,6.91-1.49l62,40c1.43,.92,2.29,2.5,2.29,4.2s-.86,3.28-2.29,4.2l-62,40c-.84,.54-1.78,.8-2.71,.8Z"/>
      <path class="cls-1" d="M5.01,90c-1.64,0-3.25-.81-4.21-2.29-1.5-2.32-.83-5.42,1.49-6.91L57.78,45,2.29,9.2C-.03,7.7-.7,4.61,.8,2.29,2.3-.03,5.39-.7,7.71,.8l62,40c1.43,.92,2.29,2.5,2.29,4.2s-.86,3.28-2.29,4.2L7.71,89.2c-.84,.54-1.78,.8-2.71,.8Z"/>
    </g>
  </g>
</svg>