<?xml version="1.0" encoding="UTF-8"?>
<svg id="_레이어_2" data-name="레이어 2" xmlns="http://www.w3.org/2000/svg" viewBox="0 0 170.17 181.63">
  <defs>
    <style>
      .cls-1 {
        fill: #222;
      }
    </style>
  </defs>
  <g id="_최종" data-name="최종">
    <g>
      <path class="cls-1" d="M160.17,181.63H10c-5.52,0-10-4.48-10-10V30.15c0-5.52,4.48-10,10-10H160.17c5.52,0,10,4.48,10,10V171.63c0,5.52-4.48,10-10,10ZM20,161.63H150.17V40.15H20v121.47Z"/>
      <g>
        <rect class="cls-1" x="42.21" y="127.7" width="19.76" height="19.76"/>
        <rect class="cls-1" x="75.2" y="127.7" width="19.76" height="19.76"/>
        <rect class="cls-1" x="108.2" y="127.7" width="19.76" height="19.76"/>
        <rect class="cls-1" x="108.2" y="91.01" width="19.76" height="19.76"/>
        <rect class="cls-1" x="75.2" y="91.01" width="19.76" height="19.76"/>
        <rect class="cls-1" x="42.21" y="91.01" width="19.76" height="19.76"/>
      </g>
      <rect class="cls-1" x="10.06" y="57.83" width="150.04" height="20"/>
      <g>
        <path class="cls-1" d="M50.51,55.57c-5.52,0-10-4.48-10-10V10c0-5.52,4.48-10,10-10s10,4.48,10,10V45.57c0,5.52-4.48,10-10,10Z"/>
        <path class="cls-1" d="M119.66,55.57c-5.52,0-10-4.48-10-10V10c0-5.52,4.48-10,10-10s10,4.48,10,10V45.57c0,5.52-4.48,10-10,10Z"/>
      </g>
    </g>
  </g>
</svg>