<?xml version="1.0" encoding="UTF-8"?>
<svg id="_레이어_2" data-name="레이어 2" xmlns="http://www.w3.org/2000/svg" viewBox="0 0 117 90">
  <defs>
    <style>
      .cls-1 {
        fill: #222;
      }
    </style>
  </defs>
  <g id="_최종" data-name="최종">
    <g>
      <path class="cls-1" d="M67,90c-.93,0-1.87-.26-2.71-.8L2.29,49.2c-1.43-.92-2.29-2.5-2.29-4.2s.86-3.28,2.29-4.2L64.29,.8c2.32-1.5,5.42-.83,6.91,1.49,1.5,2.32,.83,5.42-1.49,6.91L14.22,45l55.49,35.8c2.32,1.5,2.99,4.59,1.49,6.91-.96,1.48-2.56,2.29-4.21,2.29Z"/>
      <path class="cls-1" d="M112,90c-.93,0-1.87-.26-2.71-.8L47.29,49.2c-1.43-.92-2.29-2.5-2.29-4.2s.86-3.28,2.29-4.2L109.29,.8c2.32-1.5,5.42-.83,6.91,1.49,1.5,2.32,.83,5.42-1.49,6.91L59.22,45l55.49,35.8c2.32,1.5,2.99,4.59,1.49,6.91-.96,1.48-2.56,2.29-4.21,2.29Z"/>
    </g>
  </g>
</svg>