<?xml version="1.0" encoding="UTF-8"?>
<svg id="_레이어_2" data-name="레이어 2" xmlns="http://www.w3.org/2000/svg" viewBox="0 0 221.71 177.63">
  <defs>
    <style>
      .camera-1 {
        fill: #9B9B9B;
      }
    </style>
  </defs>
  <g id="_최종" data-name="최종">
    <g>
      <path class="camera-1" d="M196.47,177.63H25.23c-13.91,0-25.23-11.32-25.23-25.23V44.82c0-13.91,11.32-25.23,25.23-25.23h38.95l5.72-14.52c1.21-3.06,4.16-5.07,7.44-5.07h67.92c3.29,0,6.24,2.01,7.44,5.07l5.73,14.53h38.04c13.91,0,25.23,11.32,25.23,25.23v107.57c0,13.91-11.32,25.23-25.23,25.23ZM25.23,35.59c-5.09,0-9.23,4.14-9.23,9.23v107.57c0,5.09,4.14,9.23,9.23,9.23H196.47c5.09,0,9.23-4.14,9.23-9.23V44.82c0-5.09-4.14-9.23-9.23-9.23h-43.49c-3.29,0-6.24-2.01-7.44-5.07l-5.73-14.53h-57.02l-5.72,14.52c-1.21,3.06-4.16,5.07-7.44,5.07H25.23Z"/>
      <path class="camera-1" d="M111.23,147.49c-26.64,0-48.31-21.67-48.31-48.31s21.67-48.31,48.31-48.31,48.31,21.67,48.31,48.31-21.67,48.31-48.31,48.31Zm0-80.62c-17.82,0-32.31,14.5-32.31,32.31s14.5,32.31,32.31,32.31,32.31-14.5,32.31-32.31-14.5-32.31-32.31-32.31Z"/>
      <circle class="camera-1" cx="41.02" cy="58.86" r="7.91"/>
    </g>
  </g>
</svg>