<?xml version="1.0" encoding="UTF-8"?>
<svg id="_레이어_2" data-name="레이어 2" xmlns="http://www.w3.org/2000/svg" viewBox="0 0 205.71 161.63">
  <defs>
    <style>
      .cls-1 {
        fill: #353535;
      }
    </style>
  </defs>
  <g id="_최종" data-name="최종">
    <g>
      <path class="cls-1" d="M188.47,19.59h-43.49L137.26,0H69.35l-7.72,19.59H17.23C7.71,19.59,0,27.31,0,36.82v107.57c0,9.52,7.71,17.23,17.23,17.23H188.47c9.52,0,17.23-7.72,17.23-17.23V36.82c0-9.52-7.71-17.23-17.23-17.23ZM32.84,58.77c-4.37,0-7.91-3.54-7.91-7.91s3.54-7.91,7.91-7.91,7.91,3.54,7.91,7.91-3.54,7.91-7.91,7.91Zm70.02,80.71c-26.64,0-48.31-21.67-48.31-48.31s21.67-48.31,48.31-48.31,48.31,21.67,48.31,48.31-21.67,48.31-48.31,48.31Z"/>
      <circle class="cls-1" cx="102.85" cy="91.17" r="32.31"/>
    </g>
  </g>
</svg>