<svg width="27" height="27" viewBox="0 0 27 27" fill="none" xmlns="http://www.w3.org/2000/svg">
<path d="M18.6177 13.5L26.2936 5.82418C27.2355 4.88224 27.2355 3.35506 26.2936 2.41236L24.5876 0.706449C23.6457 -0.235483 22.1185 -0.235483 21.1758 0.706449L13.5 8.38227L5.82418 0.706449C4.88224 -0.235483 3.35506 -0.235483 2.41236 0.706449L0.706449 2.41236C-0.235483 3.35429 -0.235483 4.88148 0.706449 5.82418L8.38227 13.5L0.706449 21.1758C-0.235483 22.1178 -0.235483 23.6449 0.706449 24.5876L2.41236 26.2936C3.35429 27.2355 4.88224 27.2355 5.82418 26.2936L13.5 18.6177L21.1758 26.2936C22.1178 27.2355 23.6457 27.2355 24.5876 26.2936L26.2936 24.5876C27.2355 23.6457 27.2355 22.1185 26.2936 21.1758L18.6177 13.5Z" fill="#424242"/>
</svg>
