<?xml version="1.0" encoding="UTF-8"?>
<svg id="_레이어_2" data-name="레이어 2" xmlns="http://www.w3.org/2000/svg" width="21" height="21" viewBox="0 0 21 21">
  <defs>
    <style>
      .cencel-1 {
        fill: #222;
      }
    </style>
  </defs>
  <g id="_최종" data-name="최종">
    <g>
      <path class="cencel-1" d="M19.84,21c-.3,0-.59-.11-.82-.34L.34,1.97C-.11,1.52-.11,.79,.34,.34,.79-.11,1.52-.11,1.97,.34L20.66,19.03c.45,.45,.45,1.18,0,1.64-.23,.23-.52,.34-.82,.34Z"/>
      <path class="cencel-1" d="M1.16,21c-.3,0-.59-.11-.82-.34-.45-.45-.45-1.18,0-1.64L19.03,.34c.45-.45,1.18-.45,1.64,0,.45,.45,.45,1.18,0,1.64L1.97,20.66c-.23,.23-.52,.34-.82,.34Z"/>
    </g>
  </g>
</svg>