<?xml version="1.0" encoding="UTF-8"?>
<svg id="camera2" data-name="camera2 2" xmlns="http://www.w3.org/2000/svg" viewBox="0 0 181.63 181.63">
  <defs>
    <style>
      .cancelWh-2 {
        fill: #fff;
      }
    </style>
  </defs>
  <g id="camera" data-name="camera">
    <g>
      <path class="cancelWh-2" d="M171.63,181.63c-2.56,0-5.12-.98-7.07-2.93L2.93,17.07C-.98,13.17-.98,6.83,2.93,2.93,6.84-.98,13.17-.98,17.07,2.93L178.7,164.55c3.91,3.91,3.91,10.24,0,14.14-1.95,1.95-4.51,2.93-7.07,2.93Z"/>
      <path class="cancelWh-2" d="M10,181.63c-2.56,0-5.12-.98-7.07-2.93-3.91-3.91-3.91-10.24,0-14.14L164.55,2.93c3.91-3.9,10.24-3.9,14.14,0,3.91,3.91,3.91,10.24,0,14.14L17.07,178.7c-1.95,1.95-4.51,2.93-7.07,2.93Z"/>
    </g>
  </g>
</svg>