<?xml version="1.0" encoding="UTF-8"?>
<svg id="_레이어_2" data-name="레이어 2" xmlns="http://www.w3.org/2000/svg" width="20.51" height="21" viewBox="0 0 20.51 21">
  <defs>
    <style>
      .chart-1 {
        fill: #222;
      }
    </style>
  </defs>
  <g id="_최종" data-name="최종">
    <g>
      <path class="chart-1" d="M4.55,18.11H1.96c-.77,0-1.4-.63-1.4-1.4V1.4C.57,.63,1.19,0,1.96,0h2.59c.77,0,1.4,.63,1.4,1.4v15.32c0,.77-.63,1.4-1.4,1.4ZM1.96,1.22c-.09,0-.17,.08-.17,.17v15.32c0,.09,.08,.17,.17,.17h2.59c.09,0,.17-.08,.17-.17V1.4c0-.09-.08-.17-.17-.17H1.96Z"/>
      <path class="chart-1" d="M11.67,18.11h-2.83c-.7,0-1.27-.57-1.27-1.27V6.08c0-.7,.57-1.27,1.27-1.27h2.83c.7,0,1.27,.57,1.27,1.27v10.75c0,.7-.57,1.27-1.27,1.27Zm-2.83-12.08s-.05,.02-.05,.05v10.75s.02,.05,.05,.05h2.83s.05-.02,.05-.05V6.08s-.02-.05-.05-.05h-2.83Z"/>
      <path class="chart-1" d="M18.8,18.11h-3.09c-.63,0-1.14-.51-1.14-1.14v-6.73c0-.63,.51-1.14,1.14-1.14h3.09c.63,0,1.14,.51,1.14,1.14v6.73c0,.63-.51,1.14-1.14,1.14Zm-3.01-1.22h2.93v-6.57h-2.93v6.57Z"/>
      <path class="chart-1" d="M19.9,21H.61c-.34,0-.61-.27-.61-.61s.27-.61,.61-.61H19.9c.34,0,.61,.27,.61,.61s-.27,.61-.61,.61Z"/>
    </g>
  </g>
</svg>