<?xml version="1.0" encoding="UTF-8"?>
<svg id="_레이어_2" data-name="레이어 2" xmlns="http://www.w3.org/2000/svg" width="28.14" height="26" viewBox="0 0 28.14 26">
  <defs>
    <style>
      .chat_off-1 {
        fill: #ddd;
      }

      .chat_off-2 {
        fill: #fff;
      }
    </style>
  </defs>
  <g id="_최종" data-name="최종">
    <g>
      <path class="chat_off-1" d="M4.39,26c-.12,0-.23-.02-.35-.07-.32-.14-.52-.45-.52-.79v-2.35s-1.12,0-1.12,0c-1.33,0-2.41-1.08-2.41-2.41V11.22c0-1.33,1.08-2.41,2.41-2.41h14.97c1.33,0,2.41,1.08,2.41,2.41v9.16c0,1.33-1.08,2.41-2.41,2.41H8.18l-3.2,2.98c-.16,.15-.38,.23-.59,.23Zm-1.98-15.46c-.37,0-.67,.3-.67,.67v9.16c0,.37,.3,.67,.67,.67h1.98c.23,0,.45,.09,.61,.25s.25,.38,.25,.61v1.23s2-1.86,2-1.86c.16-.15,.37-.23,.59-.23h9.54c.37,0,.67-.3,.67-.67V11.22c0-.37-.3-.67-.67-.67H2.41Z"/>
      <g>
        <path class="chat_off-2" d="M25.74,13.11h-1.98v3.22s-3.45-3.22-3.45-3.22H10.76c-.85,0-1.54-.69-1.54-1.54V2.41c0-.85,.69-1.54,1.54-1.54h14.97c.85,0,1.54,.69,1.54,1.54V11.57c0,.85-.69,1.54-1.54,1.54Z"/>
        <path class="chat_off-1" d="M23.75,17.19c-.21,0-.43-.08-.59-.23l-3.2-2.98H10.76c-1.33,0-2.41-1.08-2.41-2.41V2.41c0-1.33,1.08-2.41,2.41-2.41h14.97c1.33,0,2.41,1.08,2.41,2.41V11.57c0,1.33-1.08,2.41-2.41,2.41h-1.12v2.35c0,.34-.2,.66-.52,.79-.11,.05-.23,.07-.35,.07ZM10.76,1.73c-.37,0-.67,.3-.67,.67V11.57c0,.37,.3,.67,.67,.67h9.54c.22,0,.43,.08,.59,.23l2,1.86v-1.23c0-.23,.09-.45,.25-.61s.38-.25,.61-.25h1.98c.37,0,.67-.3,.67-.67V2.41c0-.37-.3-.67-.67-.67H10.76Z"/>
      </g>
      <g>
        <circle class="chat_off-1" cx="12.95" cy="6.97" r="1.24"/>
        <circle class="chat_off-1" cx="18.25" cy="6.97" r="1.24"/>
        <circle class="chat_off-1" cx="23.55" cy="6.97" r="1.24"/>
      </g>
    </g>
  </g>
</svg>