<?xml version="1.0" encoding="UTF-8"?>
<svg id="_레이어_2" data-name="레이어 2" xmlns="http://www.w3.org/2000/svg" viewBox="0 0 207.31 181.64">
  <defs>
    <style>
      .commentIcon-1 {
        fill: #9b9b9b;
      }
    </style>
  </defs>
  <g id="_최종" data-name="최종">
    <g>
      <g>
        <circle class="commentIcon-1" cx="148.86" cy="85.66" r="12.2"/>
        <circle class="commentIcon-1" cx="104.29" cy="85.66" r="12.2"/>
        <circle class="commentIcon-1" cx="59.72" cy="85.66" r="12.2"/>
      </g>
      <path class="commentIcon-1" d="M17.27,181.64c-2.37,0-4.41-.53-6.34-1.65-2.82-1.63-4.76-4.29-5.46-7.49-1.5-6.81,2.76-13.25,11.04-24.97,1.81-2.56,4.43-6.27,6.17-9.08C8.01,123.4,0,104.7,0,85.2,0,38.22,46.5,0,103.66,0s103.66,38.22,103.66,85.2-46.5,85.2-103.66,85.2c-13.5,0-26.61-2.09-38.99-6.21-3.69,.92-12.68,4.91-18.8,7.62-14.22,6.31-22.51,9.83-28.6,9.83ZM103.66,20c-46.13,0-83.66,29.25-83.66,65.2,0,15.61,7.26,30.75,20.43,42.61,4.96,4.46,5.11,10.9,.45,19.15-1.27,2.25-2.89,4.72-4.62,7.23,.52-.23,1.02-.45,1.49-.66,17.87-7.92,25.37-11.05,31.82-8.8,10.75,3.76,22.21,5.67,34.08,5.67,46.13,0,83.66-29.25,83.66-65.2S149.78,20,103.66,20Z"/>
    </g>
  </g>
</svg>