<svg width="61" height="61" viewBox="0 0 71 71" fill="none" xmlns="http://www.w3.org/2000/svg">
<circle cx="35.5" cy="35.5" r="35.5" fill="url(#paint0_linear_1080_3)"/>
<path d="M53.2696 29.39C52.9196 29.39 52.6396 29.11 52.6396 28.76V18.63C52.6396 18.28 52.9196 18 53.2696 18C53.6196 18 53.8997 18.28 53.8997 18.63V28.77C53.8997 29.12 53.6196 29.4 53.2696 29.4V29.39Z" fill="white" stroke="white" stroke-width="2" stroke-miterlimit="10"/>
<path d="M58.3403 24.3201H48.2003C47.8503 24.3201 47.5703 24.0401 47.5703 23.6901C47.5703 23.3401 47.8503 23.0601 48.2003 23.0601H58.3403C58.6903 23.0601 58.9703 23.3401 58.9703 23.6901C58.9703 24.0401 58.6903 24.3201 58.3403 24.3201Z" fill="white" stroke="white" stroke-width="2" stroke-miterlimit="10"/>
<path d="M28.6598 39.29C23.8898 39.29 20.0098 35.41 20.0098 30.64C20.0098 25.87 23.8998 22 28.6598 22C33.4198 22 37.3098 25.88 37.3098 30.65C37.3098 35.42 33.4298 39.3 28.6598 39.3V39.29ZM28.6598 23.97C24.9798 23.97 21.9898 26.96 21.9898 30.64C21.9898 34.32 24.9798 37.31 28.6598 37.31C32.3398 37.31 35.3298 34.32 35.3298 30.64C35.3298 26.96 32.3398 23.97 28.6598 23.97V23.97Z" fill="white"/>
<path d="M28.66 38.38C21.13 38.38 15 44.95 15 53.02C15 53.56 15.44 54.01 15.99 54.01C16.54 54.01 16.98 53.57 16.98 53.02C16.98 46.04 22.22 40.36 28.67 40.36H28.72C35.17 40.36 40.41 46.04 40.41 53.02C40.41 53.56 40.85 54.01 41.4 54.01C41.95 54.01 42.39 53.57 42.39 53.02C42.39 44.95 36.26 38.38 28.73 38.38H28.68H28.66Z" fill="white"/>
<path d="M52.5201 53.01C52.5201 53.56 52.0801 54 51.5301 54C50.9801 54 50.5501 53.56 50.5501 53.01C50.5501 46.11 45.4101 40.47 39.0701 40.36C38.7901 39.99 38.4601 39.61 38.1601 39.26C37.8801 38.95 37.6101 38.67 37.4101 38.45C37.1401 38.17 36.9701 38 36.9701 38C37.2401 37.73 37.4401 37.46 37.5801 37.2C37.9701 37.28 38.3801 37.32 38.8001 37.32C42.4801 37.32 45.4801 34.32 45.4801 30.65C45.4801 26.98 42.4801 23.97 38.8001 23.97C38.1801 23.97 37.5801 24.06 37.0101 24.23C36.5001 23.56 35.9001 23.07 35.3701 22.73C36.4201 22.26 37.5801 22 38.8001 22C43.5701 22 47.4501 25.88 47.4501 30.65C47.4501 34.34 45.1101 37.51 41.8401 38.73C47.9401 40.19 52.5201 46.04 52.5201 53.01Z" fill="white" stroke="white" stroke-width="0.5" stroke-miterlimit="10"/>
<path d="M17.9702 45.0001L15.9902 54.0001H41.3902L39.9702 45.0001L29.8902 39.0601L21.9702 41.0001L17.9702 45.0001Z" fill="white"/>
<path d="M28.9697 38C33.388 38 36.9697 34.6421 36.9697 30.5C36.9697 26.3579 33.388 23 28.9697 23C24.5514 23 20.9697 26.3579 20.9697 30.5C20.9697 34.6421 24.5514 38 28.9697 38Z" fill="white"/>
<defs>
<linearGradient id="paint0_linear_1080_3" x1="35.5" y1="0" x2="35.5" y2="71" gradientUnits="userSpaceOnUse">
<stop stop-color="#80BC28"/>
<stop offset="1" stop-color="#AFDB6E"/>
</linearGradient>
</defs>
</svg>
