<?xml version="1.0" encoding="UTF-8"?>
<svg id="_레이어_2" data-name="레이어 2" xmlns="http://www.w3.org/2000/svg" width="27.29" height="26" viewBox="0 0 27.29 26">
  <defs>
    <style>
      .community_off-1 {
        fill: #ddd;
      }

      .community_off-2 {
        fill: #fff;
      }
    </style>
  </defs>
  <g id="_최종" data-name="최종">
    <g>
      <path class="community_off-1" d="M13,26C5.83,26,0,20.17,0,13S5.83,0,13,0s13,5.83,13,13-5.83,13-13,13ZM13,1.73C6.79,1.73,1.73,6.79,1.73,13s5.05,11.27,11.27,11.27,11.27-5.05,11.27-11.27S19.21,1.73,13,1.73Z"/>
      <path class="community_off-1" d="M13,26c-1.79,0-3.4-1.45-4.55-4.07-1.05-2.4-1.63-5.57-1.63-8.93s.58-6.53,1.63-8.93C9.6,1.45,11.21,0,13,0s3.4,1.45,4.55,4.07c1.05,2.4,1.63,5.57,1.63,8.93s-.58,6.53-1.63,8.93c-1.15,2.63-2.77,4.07-4.55,4.07ZM13,1.73c-2.11,0-4.45,4.63-4.45,11.27s2.35,11.27,4.45,11.27,4.45-4.63,4.45-11.27S15.11,1.73,13,1.73Z"/>
      <path class="community_off-1" d="M13,16.34C3.41,16.34,.33,12.78,.2,12.62l1.33-1.11h0s.69,.77,2.43,1.53c1.62,.71,4.5,1.56,9.05,1.56s7.56-.88,9.19-1.63c1.62-.74,2.27-1.46,2.28-1.47l1.33,1.11c-.13,.15-3.21,3.72-12.8,3.72Z"/>
      <g>
        <path class="community_off-2" d="M20.6,25.13s-5.3-2.6-5.73-5.73c-.54-3.85,3.49-5.82,5.73-2.6h.04c2.24-3.23,6.27-1.25,5.73,2.6-.44,3.14-5.73,5.73-5.73,5.73h-.04Z"/>
        <path class="community_off-1" d="M20.64,26h-.04c-.13,0-.26-.03-.38-.09-.06-.03-1.41-.7-2.84-1.78-2.02-1.53-3.15-3.08-3.37-4.61-.36-2.59,1.01-4.36,2.54-4.95,.81-.32,1.68-.34,2.51-.05,.57,.19,1.09,.52,1.56,.98,.47-.45,1-.78,1.56-.98,.83-.28,1.7-.27,2.51,.05,1.52,.6,2.9,2.36,2.54,4.95-.21,1.54-1.35,3.09-3.37,4.61-1.43,1.08-2.79,1.75-2.84,1.78-.12,.06-.25,.09-.38,.09Zm-2.77-9.95c-.23,0-.47,.04-.7,.13-.89,.35-1.68,1.44-1.45,3.1,.28,2.02,3.35,4.06,4.9,4.89,1.54-.83,4.61-2.87,4.9-4.89,.23-1.66-.56-2.75-1.45-3.1-.95-.37-1.97,.04-2.71,1.12-.16,.23-.43,.37-.71,.37h-.04c-.28,0-.55-.14-.71-.37-.56-.81-1.28-1.25-2.02-1.25Z"/>
      </g>
    </g>
  </g>
</svg>