<?xml version="1.0" encoding="UTF-8"?>
<svg id="_레이어_2" data-name="레이어 2" xmlns="http://www.w3.org/2000/svg" viewBox="0 0 167.08 181.63">
  <defs>
    <style>
      .delete-3 {
        fill: #222;
      }
    </style>
  </defs>
  <g id="_최종" data-name="최종">
    <g>
      <path class="delete-3" d="M129.26,181.63H37.81c-10.83,0-19.64-8.81-19.64-19.64V41.82c0-5.52,4.48-10,10-10h110.74c5.52,0,10,4.48,10,10v120.17c0,10.83-8.81,19.64-19.64,19.64Zm-91.09-20h90.74V51.82H38.17v109.81Z"/>
      <path class="delete-3" d="M51.2,43.32c-2.92,0-5.71-1.28-7.63-3.54-2.21-2.61-2.94-6.17-1.92-9.44l6.12-19.65c.12-.38,.26-.75,.42-1.12l.2-.44c1.11-2.5,4.06-9.14,12.28-9.14h45.73c8.22,0,11.17,6.64,12.28,9.14l.2,.44c.16,.35,.29,.7,.41,1.07l6.12,19.28c.96,3.04,.42,6.36-1.46,8.93-1.88,2.57-4.88,4.1-8.07,4.1h-3.35c-5.52,0-10-4.48-10-10,0-1.79,.47-3.47,1.29-4.92l-2.55-8.03h-35.44l-2.53,8.11c.8,1.44,1.25,3.09,1.25,4.85,0,5.52-4.48,10-10,10h-.21c-.39,.07-.93,.16-1.77,.27-.46,.06-.91,.09-1.37,.09Z"/>
      <path class="delete-3" d="M10,51.94C4.5,51.94,.03,47.5,0,42c-.03-5.52,4.42-10.03,9.94-10.06l147.08-.84h.06c5.5,0,9.97,4.44,10,9.94,.03,5.52-4.42,10.03-9.94,10.06l-147.08,.84h-.06Z"/>
      <g>
        <path class="delete-3" d="M65.09,148.96c-5.52,0-10-4.48-10-10v-62.59c0-5.52,4.48-10,10-10s10,4.48,10,10v62.59c0,5.52-4.48,10-10,10Z"/>
        <path class="delete-3" d="M101.99,148.96c-5.52,0-10-4.48-10-10v-62.59c0-5.52,4.48-10,10-10s10,4.48,10,10v62.59c0,5.52-4.48,10-10,10Z"/>
      </g>
    </g>
  </g>
</svg>