<svg width="41" height="36" viewBox="0 0 41 36" fill="none" xmlns="http://www.w3.org/2000/svg">
<path d="M28.1328 24.1241L30.3706 21.8863C30.7202 21.5367 31.3286 21.7814 31.3286 22.2849V32.4528C31.3286 34.3059 29.8251 35.8094 27.972 35.8094H3.35664C1.50349 35.8094 0 34.3059 0 32.4528V7.8374C0 5.98426 1.50349 4.48076 3.35664 4.48076H22.4825C22.979 4.48076 23.2307 5.08216 22.8811 5.4388L20.6433 7.67656C20.5384 7.78146 20.3986 7.8374 20.2447 7.8374H3.35664V32.4528H27.972V24.5157C27.972 24.3688 28.0279 24.229 28.1328 24.1241ZM39.0839 10.0122L20.7202 28.3758L14.3986 29.0751C12.5664 29.2779 11.007 27.7325 11.2098 25.8863L11.9091 19.5647L30.2727 1.20105C31.8741 -0.400349 34.4615 -0.400349 36.0559 1.20105L39.0769 4.22202C40.6783 5.82342 40.6783 8.41782 39.0839 10.0122ZM32.1748 12.1731L28.1118 8.11013L15.1189 21.1101L14.6084 25.6765L19.1748 25.166L32.1748 12.1731ZM36.7062 6.59964L33.6853 3.57867C33.3985 3.29195 32.93 3.29195 32.6503 3.57867L30.4895 5.7395L34.5524 9.80243L36.7132 7.6416C36.9929 7.34789 36.993 6.88635 36.7062 6.59964Z" fill="white"/>
</svg>
