<?xml version="1.0" encoding="UTF-8"?>
<svg id="_레이어_2" data-name="레이어 2" xmlns="http://www.w3.org/2000/svg" width="24" height="21" viewBox="0 0 24 21">
  <defs>
    <style>
      .cls-1 {
        group: #222;
      }
    </style>
  </defs>
  <g id="_최종" data-name="최종">
    <g>
      <path class="group-1" d="M15,0c-1.45,0-2.77,.55-3.77,1.44,.25,.37,.62,.67,1.03,.84,.75-.61,1.69-.99,2.73-.99,2.41,0,4.38,1.96,4.38,4.38s-1.96,4.38-4.38,4.38c-.88,0-1.7-.27-2.39-.72-.23,.38-.57,.71-.97,.9,.94,.7,2.1,1.12,3.36,1.12,3.13,0,5.67-2.54,5.67-5.67S18.13,0,15,0Z"/>
      <path class="group-1" d="M15.03,10.75c-1.36,0-2.62,.27-3.75,.76,.43,.19,.86,.62,1.28,.91,.77-.24,1.6-.37,2.47-.37,4.23,0,7.67,3.73,7.67,8.31,0,.36,.29,.65,.65,.65s.65-.29,.65-.65c0-5.3-4.02-9.6-8.97-9.6Z"/>
      <path class="group-1" d="M9,11.35c-3.13,0-5.67-2.55-5.67-5.67S5.87,0,9,0s5.67,2.55,5.67,5.67-2.55,5.67-5.67,5.67Zm0-10.05c-2.41,0-4.38,1.96-4.38,4.38s1.96,4.38,4.38,4.38,4.38-1.96,4.38-4.38S11.41,1.29,9,1.29Z"/>
      <path class="group-1" d="M17.35,21c-.36,0-.65-.29-.65-.65,0-4.58-3.44-8.31-7.67-8.31S1.29,15.34,1.29,19.71c0,.36-.29,.65-.65,.65s-.65-.29-.65-.65c0-5.11,3.88-8.96,9.03-8.96s8.97,4.31,8.97,9.61c0,.36-.29,.65-.65,.65Z"/>
    </g>
  </g>
</svg>