<?xml version="1.0" encoding="UTF-8"?>
<svg id="_레이어_2" data-name="레이어 2" xmlns="http://www.w3.org/2000/svg" viewBox="0 0 194.07 177.63">
  <defs>
    <style>
      .cls-1 {
        fill: #fff;
      }

      .cls-2 {
        fill: #222;
      }

      .cls-3 {
        fill: none;
        stroke: #222;
        stroke-linecap: round;
        stroke-linejoin: round;
        stroke-width: 10px;
      }
    </style>
  </defs>
  <g id="_최종" data-name="최종">
    <g>
      <circle class="cls-3" cx="124.55" cy="51.39" r="38.81"/>
      <path class="cls-3" d="M60.04,159.77c0-38.21,29.29-64.2,64.77-64.2s64.25,30.97,64.25,69.18"/>
      <circle class="cls-1" cx="76.41" cy="51.39" r="38.81"/>
      <path class="cls-1" d="M12.16,164.75c0-38.21,28.76-69.18,64.25-69.18s64.25,30.97,64.25,69.18"/>
      <g>
        <path class="cls-2" d="M140.66,173.63c-4.5,0-8.16-3.98-8.16-8.87,0-33.25-25.16-60.31-56.09-60.31s-56.09,27.05-56.09,60.31c0,4.89-3.66,8.87-8.16,8.87s-8.16-3.98-8.16-8.87c0-32.79,19.37-62,47.29-73.19-13.64-8.54-22.28-23.64-22.28-40.17C29.02,25.26,50.27,4,76.41,4s47.39,21.26,47.39,47.39c0,16.53-8.64,31.63-22.28,40.17,27.92,11.19,47.29,40.4,47.29,73.19,0,4.89-3.66,8.87-8.16,8.87ZM76.41,21.15c-16.67,0-30.24,13.57-30.24,30.24s13.56,30.24,30.24,30.24,30.24-13.56,30.24-30.24-13.57-30.24-30.24-30.24Z"/>
        <path class="cls-1" d="M76.41,8c23.93,0,43.39,19.47,43.39,43.39,0,18.91-12.17,35.03-29.08,40.96,30.87,7.14,54.1,36.89,54.1,72.41,0,2.69-1.86,4.87-4.16,4.87s-4.16-2.18-4.16-4.87c0-35.46-26.96-64.31-60.09-64.31s-60.09,28.85-60.09,64.31c0,2.69-1.86,4.87-4.16,4.87s-4.16-2.18-4.16-4.87c0-35.52,23.22-65.26,54.1-72.41-16.91-5.93-29.08-22.04-29.08-40.96,0-23.93,19.47-43.39,43.39-43.39m0,77.63c18.88,0,34.24-15.36,34.24-34.24s-15.36-34.24-34.24-34.24-34.24,15.36-34.24,34.24,15.36,34.24,34.24,34.24M76.41,0C48.07,0,25.02,23.05,25.02,51.39c0,15.48,6.98,29.8,18.41,39.38-10.12,5.23-19.16,12.84-26.33,22.31C6.07,127.64,0,146,0,164.75c0,7.1,5.45,12.87,12.16,12.87s12.16-5.77,12.16-12.87c0-31.05,23.37-56.31,52.09-56.31s52.09,25.26,52.09,56.31c0,7.1,5.45,12.87,12.16,12.87s12.16-5.77,12.16-12.87c0-18.76-6.07-37.11-17.09-51.67-7.17-9.47-16.21-17.08-26.33-22.31,11.43-9.58,18.41-23.9,18.41-39.38C127.8,23.05,104.74,0,76.41,0h0Zm0,77.63c-14.47,0-26.24-11.77-26.24-26.24s11.77-26.24,26.24-26.24,26.24,11.77,26.24,26.24-11.77,26.24-26.24,26.24h0Z"/>
      </g>
    </g>
  </g>
</svg>