<?xml version="1.0" encoding="UTF-8"?>
<svg id="_레이어_2" data-name="레이어 2" xmlns="http://www.w3.org/2000/svg" viewBox="0 0 206.28 181.63">
  <defs>
    <style>
      .heart-5 {
        fill: #9b9b9b;
      }
    </style>
  </defs>
  <g id="_최종" data-name="최종">
    <path class="heart-5" d="M103.26,181.63h-.23c-2.43,0-4.7-.88-6.46-2.37-11.14-6.88-75.11-47.99-92.21-93.67C-.89,71.6-1.41,55.94,2.88,41.5,7.19,27.02,15.92,15.02,27.45,7.71,38.91,.45,52.32-1.74,66.23,1.39c12.38,2.79,24.76,9.66,36.92,20.46,12.15-10.81,24.54-17.68,36.92-20.46,13.91-3.13,27.32-.95,38.78,6.32,11.53,7.31,20.25,19.31,24.56,33.79,4.3,14.44,3.78,30.1-1.46,44.09-17.11,45.69-81.1,86.79-92.22,93.67-1.76,1.49-4.03,2.37-6.46,2.37ZM54,20.02c-5.67,0-11,1.51-15.84,4.58-15.99,10.14-22.62,33.85-15.08,53.98,13.3,35.53,63.59,70.45,80.06,81.15,16.47-10.7,66.76-45.62,80.06-81.15,7.54-20.13,.91-43.84-15.08-53.98-15.48-9.81-36.04-3.67-56.6,16.83-1.84,2.7-4.92,4.37-8.27,4.37h-.23c-3.35,0-6.43-1.67-8.27-4.37-14.14-14.1-28.28-21.41-40.76-21.41Z"/>
  </g>
</svg>