<?xml version="1.0" encoding="UTF-8"?>
<svg id="_레이어_2" data-name="레이어 2" xmlns="http://www.w3.org/2000/svg" viewBox="0 0 206.28 181.63">
  <defs>
    <style>
      .cls-1 {
        fill: #9b9b9b;
      }
    </style>
  </defs>
  <g id="_최종" data-name="최종">
    <path class="cls-1" d="M201.94,85.59c-17.11,45.69-81.1,86.8-92.22,93.67-1.76,1.49-4.03,2.37-6.46,2.37h-.23c-2.43,0-4.7-.88-6.46-2.37-11.14-6.88-75.11-47.99-92.22-93.67C-.89,71.59-1.41,55.93,2.89,41.5,7.2,27.02,15.92,15.02,27.45,7.71,38.91,.44,52.32-1.74,66.23,1.39c12.38,2.78,24.76,9.66,36.92,20.46,12.15-10.8,24.53-17.68,36.91-20.46,13.91-3.13,27.32-.95,38.78,6.32,11.53,7.31,20.25,19.31,24.56,33.79,4.3,14.43,3.78,30.09-1.46,44.09Z"/>
  </g>
</svg>