<?xml version="1.0" encoding="UTF-8"?>
<svg id="_레이어_2" data-name="레이어 2" xmlns="http://www.w3.org/2000/svg" width="17" height="17" viewBox="0 0 17 17">
  <defs>
    <style>
      .icon_update-1 {
        fill: #fff;
      }
    </style>
  </defs>
  <g id="_최종" data-name="최종">
    <g>
      <path class="icon_update-1" d="M.94,17c-.25,0-.49-.1-.66-.27-.19-.19-.29-.46-.27-.73l.27-3.77c.02-.23,.11-.44,.27-.6L11.57,.6c.39-.39,.9-.6,1.45-.6s1.07,.21,1.45,.6l1.92,1.92c.39,.39,.6,.9,.6,1.45s-.21,1.07-.6,1.45L5.37,16.46c-.16,.16-.37,.26-.6,.27l-3.77,.27s-.04,0-.07,0Zm3.77-1.2h0Zm-2.6-3.09l-.17,2.35,2.35-.17L15.07,4.11s.05-.09,.05-.13,0-.08-.05-.13l-1.92-1.92s-.09-.05-.13-.05-.08,0-.13,.05L2.11,12.7Z"/>
      <path class="icon_update-1" d="M13.75,7.66c-.24,0-.48-.09-.66-.27l-3.47-3.47c-.37-.37-.37-.96,0-1.33,.37-.37,.96-.37,1.33,0l3.47,3.47c.37,.37,.37,.96,0,1.33-.18,.18-.42,.27-.66,.27Z"/>
    </g>
  </g>
</svg>