<?xml version="1.0" encoding="UTF-8"?>
<svg id="_레이어_2" data-name="레이어 2" xmlns="http://www.w3.org/2000/svg" width="33.7" height="27" viewBox="0 0 33.7 27">
  <defs>
    <style>
      .icon_camera-1 {
        fill: #222;
      }
    </style>
  </defs>
  <g id="_최종" data-name="최종">
    <g>
      <path class="icon_camera-1" d="M29.86,27H3.84c-2.11,0-3.84-1.72-3.84-3.84V6.81c0-2.11,1.72-3.84,3.84-3.84h5.92l.87-2.21c.18-.46,.63-.77,1.13-.77h10.32c.5,0,.95,.31,1.13,.77l.87,2.21h5.78c2.11,0,3.84,1.72,3.84,3.84V23.16c0,2.11-1.72,3.84-3.84,3.84ZM3.84,5.41c-.77,0-1.4,.63-1.4,1.4V23.16c0,.77,.63,1.4,1.4,1.4H29.86c.77,0,1.4-.63,1.4-1.4V6.81c0-.77-.63-1.4-1.4-1.4h-6.61c-.5,0-.95-.31-1.13-.77l-.87-2.21H12.59l-.87,2.21c-.18,.46-.63,.77-1.13,.77H3.84Z"/>
      <path class="icon_camera-1" d="M16.91,22.42c-4.05,0-7.34-3.29-7.34-7.34s3.29-7.34,7.34-7.34,7.34,3.29,7.34,7.34-3.29,7.34-7.34,7.34Zm0-12.26c-2.71,0-4.91,2.2-4.91,4.91s2.2,4.91,4.91,4.91,4.91-2.2,4.91-4.91-2.2-4.91-4.91-4.91Z"/>
      <circle class="icon_camera-1" cx="6.24" cy="8.95" r="1.2"/>
    </g>
  </g>
</svg>