<?xml version="1.0" encoding="UTF-8"?>info-on
<svg id="_레이어_2" data-name="레이어 2" xmlns="http://www.w3.org/2000/svg" viewBox="0 0 413.31 420.5">
  <defs>
    <style>
      .info-on-1 {
        fill: #94da76;
      }

      .info-on-1, .info-on-2 {
        stroke: #94da76;
      }

      .info-on-1, .info-on-2, .info-on-3 {
        stroke-width: 28px;
      }

      .info-on-1, .info-on-3 {
        stroke-linecap: round;
        stroke-linejoin: round;
      }

      .info-on-2 {
        stroke-miterlimit: 10;
      }

      .info-on-2, .info-on-3 {
        fill: none;
      }

      .info-on-3 {
        stroke: #fff;
      }
    </style>
  </defs>
  <g id="_최종" data-name="최종">
    <g>
      <path class="info-on-1" d="M35.31,406.5c34.52,0,35.5-31.54,35.2-35.55-.03-.34-.04-.68-.04-1.02V26.68c0-7,5.39-12.68,12.05-12.68l304.63,2c6.65,0,12.05,5.68,12.05,12.68V371.92c0,.34,.01,.68,.04,1.02,.3,4.01,1.32,33.55-33.2,33.55H35.31Z"/>
      <path class="info-on-2" d="M35.71,406.5c-20.72,0-21.71-33.5-21.71-33.5V60.5h51"/>
      <g>
        <rect class="info-on-3" x="120" y="160.34" width="108" height="111.52" rx="11.21" ry="11.21"/>
        <line class="info-on-3" x1="116.12" y1="94.5" x2="354.12" y2="94.5"/>
        <line class="info-on-3" x1="116.12" y1="337.7" x2="354.12" y2="337.7"/>
        <line class="info-on-3" x1="281.19" y1="175.57" x2="352.42" y2="175.57"/>
        <line class="info-on-3" x1="281.19" y1="256.63" x2="352.42" y2="256.63"/>
      </g>
    </g>
  </g>
</svg>