<?xml version="1.0" encoding="UTF-8"?>
<svg id="_레이어_2" data-name="레이어 2" xmlns="http://www.w3.org/2000/svg" width="25.56" height="26" viewBox="0 0 25.56 26">
  <defs>
    <style>
      .info_on-1 {
        fill: #fff;
      }

      .info_on-2 {
        fill: #94da76;
      }
    </style>
  </defs>
  <g id="_최종" data-name="최종">
    <g>
      <g>
        <path class="info_on-2" d="M2.18,25.13c2.13,0,2.19-1.95,2.18-2.2,0-.02,0-.04,0-.06V1.65c0-.43,.33-.78,.74-.78l18.84,.12c.41,0,.74,.35,.74,.78V23s0,.04,0,.06c.02,.25,.08,2.07-2.05,2.07H2.18Z"/>
        <path class="info_on-2" d="M22.63,26H2.18c-.48,0-.87-.39-.87-.87s.39-.87,.87-.87c.44,0,.76-.11,.97-.33,.34-.35,.34-.92,.34-.95,0-.04,0-.08,0-.12V1.65c0-.91,.72-1.65,1.61-1.65L23.94,.12c.88,0,1.6,.74,1.6,1.65V23c.02,.3,.04,1.35-.71,2.15-.52,.56-1.27,.85-2.21,.85Zm-17.66-1.73H22.63c.44,0,.76-.1,.94-.3,.28-.31,.25-.83,.25-.85,0-.04,0-.09,0-.13V1.85l-18.59-.12V22.87s.05,.69-.25,1.4ZM23.94,1.85h0Z"/>
      </g>
      <path class="info_on-2" d="M2.21,26c-.9,0-1.62-.59-1.97-1.62C.03,23.75,0,23.15,0,23.09v-.03s0-20.19,0-20.19H4.02v1.73H1.73V23.05c.02,.43,.21,1.22,.48,1.22v1.73Z"/>
      <g>
        <path class="info_on-1" d="M13.4,17.68h-5.29c-.86,0-1.56-.7-1.56-1.56v-5.51c0-.86,.7-1.56,1.56-1.56h5.29c.86,0,1.56,.7,1.56,1.56v5.51c0,.86-.7,1.56-1.56,1.56Zm-5.12-1.73h4.95v-5.16h-4.95v5.16Z"/>
        <path class="info_on-1" d="M21.9,6.71H7.18c-.48,0-.87-.39-.87-.87s.39-.87,.87-.87h14.72c.48,0,.87,.39,.87,.87s-.39,.87-.87,.87Z"/>
        <path class="info_on-1" d="M21.9,21.75H7.18c-.48,0-.87-.39-.87-.87s.39-.87,.87-.87h14.72c.48,0,.87,.39,.87,.87s-.39,.87-.87,.87Z"/>
        <path class="info_on-1" d="M21.79,11.72h-4.4c-.48,0-.87-.39-.87-.87s.39-.87,.87-.87h4.4c.48,0,.87,.39,.87,.87s-.39,.87-.87,.87Z"/>
        <path class="info_on-1" d="M21.79,16.73h-4.4c-.48,0-.87-.39-.87-.87s.39-.87,.87-.87h4.4c.48,0,.87,.39,.87,.87s-.39,.87-.87,.87Z"/>
      </g>
    </g>
  </g>
</svg>