<svg width="23" height="28" viewBox="0 0 23 28" fill="none" xmlns="http://www.w3.org/2000/svg">
<path d="M20.5357 12H19.3036V8.14286C19.3036 3.65357 15.8022 0 11.5 0C7.19777 0 3.69643 3.65357 3.69643 8.14286V12H2.46429C1.10379 12 0 13.1518 0 14.5714V24.8571C0 26.2768 1.10379 27.4286 2.46429 27.4286H20.5357C21.8962 27.4286 23 26.2768 23 24.8571V14.5714C23 13.1518 21.8962 12 20.5357 12ZM15.1964 12H7.80357V8.14286C7.80357 6.01607 9.46183 4.28571 11.5 4.28571C13.5382 4.28571 15.1964 6.01607 15.1964 8.14286V12Z" fill="#fff"/>
</svg>
