<svg width="50" height="50" viewBox="0 0 50 50" fill="none" xmlns="http://www.w3.org/2000/svg">
<rect x="0.5" y="0.5" width="49" height="49" rx="24.5" fill="white"/>
<path fill-rule="evenodd" clip-rule="evenodd" d="M37.4947 25.0686C37.4947 24.1899 37.4129 23.3462 37.2627 22.5352H25.25V27.3266H32.1149C31.8193 28.8752 30.9205 30.1868 29.5699 31.0655V34.1731H33.6927C36.1044 32.0166 37.4959 28.8413 37.4959 25.0686H37.4947Z" fill="#3E82F1"/>
<path fill-rule="evenodd" clip-rule="evenodd" d="M25.2581 37.174C28.702 37.174 31.5895 36.0642 33.6996 34.1726L29.5767 31.0651C28.434 31.8084 26.974 32.2472 25.2569 32.2472C21.9344 32.2472 19.1225 30.0685 18.1192 27.1406H13.8594V30.3497C15.9586 34.3978 20.2713 37.174 25.2581 37.174Z" fill="#32A753"/>
<path fill-rule="evenodd" clip-rule="evenodd" d="M18.1176 27.1431C17.8629 26.3998 17.7175 25.6062 17.7175 24.7894C17.7175 23.9725 17.8629 23.179 18.1176 22.4357V19.2266H13.8566C12.9927 20.8988 12.5 22.7904 12.5 24.7894C12.5 26.7884 12.9927 28.68 13.8566 30.3522L18.1176 27.1431Z" fill="#F9BB00"/>
<path fill-rule="evenodd" clip-rule="evenodd" d="M25.2581 17.3253C27.1302 17.3253 28.8125 17.9508 30.1343 19.1772L33.7933 15.6239C31.5835 13.6261 28.696 12.3984 25.2581 12.3984C20.2713 12.3984 15.9586 15.1746 13.8594 19.2227L18.1204 22.4318C19.1237 19.504 21.9356 17.3253 25.2581 17.3253Z" fill="#E74133"/>
<rect x="0.5" y="0.5" width="49" height="49" rx="24.5" stroke="#9083F7"/>
</svg>
