<svg width="50" height="50" viewBox="0 0 50 50" fill="none" xmlns="http://www.w3.org/2000/svg">
<rect x="0.5" y="0.5" width="49" height="49" rx="24.5" fill="white"/>
<path d="M36.25 25C36.25 31.2132 31.2132 36.25 25 36.25C22.7862 36.25 20.7217 35.6105 18.9812 34.5063L13.75 36.25L15.4937 31.0188C14.3895 29.2783 13.75 27.2138 13.75 25C13.75 18.7868 18.7868 13.75 25 13.75C31.2132 13.75 36.25 18.7868 36.25 25Z" fill="#FFE600"/>
<path d="M18.9812 34.5063L19.5169 33.6619C19.2631 33.5008 18.9502 33.4625 18.665 33.5576L18.9812 34.5063ZM13.75 36.25L12.8013 35.9338C12.6815 36.2931 12.7751 36.6893 13.0429 36.9571C13.3107 37.2249 13.7069 37.3185 14.0662 37.1987L13.75 36.25ZM15.4937 31.0188L16.4424 31.335C16.5375 31.0498 16.4992 30.7369 16.3381 30.4831L15.4937 31.0188ZM25 37.25C31.7655 37.25 37.25 31.7655 37.25 25H35.25C35.25 30.6609 30.6609 35.25 25 35.25V37.25ZM18.4455 35.3507C20.3414 36.5536 22.5909 37.25 25 37.25V35.25C22.9814 35.25 21.102 34.6675 19.5169 33.6619L18.4455 35.3507ZM18.665 33.5576L13.4338 35.3013L14.0662 37.1987L19.2974 35.4549L18.665 33.5576ZM14.6987 36.5662L16.4424 31.335L14.5451 30.7026L12.8013 35.9338L14.6987 36.5662ZM12.75 25C12.75 27.4091 13.4464 29.6586 14.6494 31.5545L16.3381 30.4831C15.3325 28.898 14.75 27.0186 14.75 25H12.75ZM25 12.75C18.2345 12.75 12.75 18.2345 12.75 25H14.75C14.75 19.3391 19.3391 14.75 25 14.75V12.75ZM37.25 25C37.25 18.2345 31.7655 12.75 25 12.75V14.75C30.6609 14.75 35.25 19.3391 35.25 25H37.25Z" fill="#FFE600"/>
<rect x="0.5" y="0.5" width="49" height="49" rx="24.5" stroke="#9083F7"/>
</svg>
