<?xml version="1.0" encoding="UTF-8"?>
<svg id="_레이어_2" data-name="레이어 2" xmlns="http://www.w3.org/2000/svg" width="25.76" height="26" viewBox="0 0 25.76 26">
  <defs>
    <style>
      .mypage_off-1 {
        fill: #ddd;
      }
    </style>
  </defs>
  <g id="_최종" data-name="최종">
    <g>
      <path class="mypage_off-1" d="M12.88,1.73c2.68,0,4.86,2.18,4.86,4.86s-2.18,4.86-4.86,4.86-4.86-2.18-4.86-4.86S10.2,1.73,12.88,1.73m0-1.73c-3.64,0-6.59,2.95-6.59,6.59s2.95,6.59,6.59,6.59,6.59-2.95,6.59-6.59S16.52,0,12.88,0h0Z"/>
      <path class="mypage_off-1" d="M24.89,26c-.48,0-.87-.39-.87-.87,0-5.61-5-10.18-11.15-10.18S1.73,19.52,1.73,25.13c0,.48-.39,.87-.87,.87s-.87-.39-.87-.87c0-3.19,1.35-6.19,3.8-8.44,2.43-2.23,5.65-3.46,9.08-3.46s6.65,1.23,9.08,3.46c2.45,2.25,3.8,5.25,3.8,8.44,0,.48-.39,.87-.87,.87Z"/>
    </g>
  </g>
</svg>