<?xml version="1.0" encoding="UTF-8"?>
<svg id="_레이어_2" data-name="레이어 2" xmlns="http://www.w3.org/2000/svg" width="29.09" height="29.09" viewBox="0 0 29.09 29.09">
  <defs>
    <style>
      .cls-1 {
        fill: #222;
      }
    </style>
  </defs>
  <g id="_최종" data-name="최종">
    <g>
      <path class="cls-1" d="M14.54,29.09C6.52,29.09,0,22.57,0,14.54S6.52,0,14.54,0s14.54,6.52,14.54,14.54-6.52,14.54-14.54,14.54Zm0-26.09C8.18,3,3,8.18,3,14.54s5.18,11.54,11.54,11.54,11.54-5.18,11.54-11.54S20.91,3,14.54,3Z"/>
      <g>
        <path class="cls-1" d="M14.76,19.2c-.83,0-1.5-.67-1.5-1.5,0-2.86,1.8-4.34,2.99-4.82,1.07-.66,1.19-.96,1.37-1.39,.18-.45,.24-.88,.16-1.22-.41-1.67-3.09-1.59-3.12-1.59-1.3,.03-2.22,.35-2.77,.94-.63,.68-.62,1.57-.62,1.57,.04,.83-.59,1.53-1.42,1.57-.82,.03-1.53-.59-1.57-1.42-.01-.22-.07-2.17,1.42-3.77,1.12-1.21,2.76-1.85,4.86-1.9,1.89-.06,5.34,.63,6.14,3.88,.24,.96,.13,2.02-.29,3.07-.37,.92-.83,1.77-2.71,2.9-.09,.05-.19,.1-.29,.13-.17,.07-1.14,.53-1.14,2.05,0,.83-.67,1.5-1.5,1.5Z"/>
        <circle class="cls-1" cx="14.88" cy="21.89" r="1.53"/>
      </g>
    </g>
  </g>
</svg>