<?xml version="1.0" encoding="UTF-8"?>
<svg id="_레이어_2" data-name="레이어 2" xmlns="http://www.w3.org/2000/svg" viewBox="0 0 157.48 181.63">
  <defs>
    <style>
      .cls-1 {
        fill: #222;
      }
    </style>
  </defs>
  <g id="_최종" data-name="최종">
    <g>
      <path class="cls-1" d="M133.92,181.63H23.33c-9.49,0-17.22-7.72-17.22-17.22v-11.12c0-9.49,7.72-17.22,17.22-17.22h110.59c9.49,0,17.22,7.72,17.22,17.22v11.12c0,9.49-7.72,17.22-17.22,17.22Zm-107.8-20h105.02v-5.56H26.12v5.56Z"/>
      <path class="cls-1" d="M122.83,156.07H34.42c-5.52,0-10-4.48-10-10v-54.53c0-.56,.05-1.12,.14-1.67,2.36-13.88,16.62-40.14,53.73-40.14s51.73,26.12,54.37,39.93c.12,.62,.18,1.25,.18,1.88v54.53c0,5.52-4.48,10-10,10Zm-78.41-20H112.83v-43.39c-1.17-4.44-7.65-22.95-34.54-22.95s-32.81,18.42-33.87,22.85v43.49Z"/>
      <path class="cls-1" d="M78.63,43.48c-5.52,0-10-4.48-10-10V10c0-5.52,4.48-10,10-10s10,4.48,10,10v23.48c0,5.52-4.48,10-10,10Z"/>
      <path class="cls-1" d="M26.61,60.08c-2.56,0-5.12-.98-7.07-2.93L2.93,40.54c-3.91-3.91-3.91-10.24,0-14.14,3.91-3.9,10.24-3.9,14.14,0l16.61,16.61c3.91,3.91,3.91,10.24,0,14.14-1.95,1.95-4.51,2.93-7.07,2.93Z"/>
      <path class="cls-1" d="M130.88,60.08c-2.56,0-5.12-.98-7.07-2.93-3.91-3.91-3.91-10.24,0-14.14l16.61-16.61c3.9-3.9,10.24-3.9,14.14,0,3.91,3.91,3.91,10.24,0,14.14l-16.61,16.61c-1.95,1.95-4.51,2.93-7.07,2.93Z"/>
    </g>
  </g>
</svg>