<?xml version="1.0" encoding="UTF-8"?>
<svg id="_레이어_2" data-name="레이어 2" xmlns="http://www.w3.org/2000/svg" width="20.39" height="21" viewBox="0 0 20.39 21">
  <defs>
    <style>
      .search-1 {
        fill: #222;
      }
    </style>
  </defs>
  <g id="_최종" data-name="최종">
    <g>
      <path class="search-1" d="M8.52,17.05C3.82,17.05,0,13.22,0,8.52S3.82,0,8.52,0s8.52,3.82,8.52,8.52-3.82,8.52-8.52,8.52Zm0-14.73c-3.42,0-6.21,2.79-6.21,6.21s2.79,6.21,6.21,6.21,6.21-2.79,6.21-6.21-2.79-6.21-6.21-6.21Z"/>
      <path class="search-1" d="M19.23,21c-.3,0-.59-.11-.82-.34l-5.8-5.8c-.45-.45-.45-1.18,0-1.64,.45-.45,1.18-.45,1.64,0l5.8,5.8c.45,.45,.45,1.18,0,1.64-.23,.23-.52,.34-.82,.34Z"/>
    </g>
  </g>
</svg>