<svg width="30" height="30" viewBox="0 0 30 30" fill="none" xmlns="http://www.w3.org/2000/svg">
<path d="M29.587 25.9369L23.7457 20.0957C23.4821 19.832 23.1247 19.6856 22.7497 19.6856H21.7947C23.4118 17.6174 24.3726 15.0161 24.3726 12.1863C24.3726 5.45455 18.9181 0 12.1863 0C5.45455 0 0 5.45455 0 12.1863C0 18.9181 5.45455 24.3726 12.1863 24.3726C15.0161 24.3726 17.6174 23.4118 19.6856 21.7947V22.7497C19.6856 23.1247 19.832 23.4821 20.0957 23.7457L25.9369 29.587C26.4876 30.1377 27.3782 30.1377 27.9231 29.587L29.5811 27.9289C30.1318 27.3782 30.1318 26.4876 29.587 25.9369ZM12.1863 19.6856C8.04414 19.6856 4.68704 16.3343 4.68704 12.1863C4.68704 8.04414 8.03828 4.68704 12.1863 4.68704C16.3285 4.68704 19.6856 8.03828 19.6856 12.1863C19.6856 16.3285 16.3343 19.6856 12.1863 19.6856Z" fill="#424242"/>
</svg>
