<?xml version="1.0" encoding="UTF-8"?>
<svg id="_레이어_2" data-name="레이어 2" xmlns="http://www.w3.org/2000/svg" width="27.46" height="29" viewBox="0 0 27.46 29">
  <defs>
    <style>
      .cls-1 {
        fill: #222;
      }
    </style>
  </defs>
  <g id="_최종" data-name="최종">
    <g>
      <path class="cls-1" d="M13.73,19.04c-2.5,0-4.54-2.04-4.54-4.54s2.04-4.54,4.54-4.54,4.54,2.04,4.54,4.54-2.04,4.54-4.54,4.54Zm0-5.88c-.74,0-1.35,.6-1.35,1.35s.6,1.35,1.35,1.35,1.35-.6,1.35-1.35-.6-1.35-1.35-1.35Z"/>
      <path class="cls-1" d="M13.58,29c-2.09,0-3.48-.42-4.36-1.32-1.04-1.06-.99-2.42-.96-3.32,0-.19,.02-.45,0-.64-.23,.07-.55,.22-.78,.33-1.01,.46-2.38,1.09-3.91,.47-1.24-.51-2.17-1.68-2.93-3.68-.78-2.06-.86-3.56-.24-4.71,.69-1.28,1.95-1.64,2.85-1.85-.16-.12-.32-.23-.46-.32-1.31-.91-4.04-2.79-1.28-7.35,1.11-1.83,2.21-2.81,3.47-3.09,1.48-.32,2.63,.46,3.38,.97,.02,.02,.05,.03,.08,.05,0-.04,0-.07,0-.1,0-.85-.02-2.14,1-3.16,.87-.87,2.21-1.28,4.23-1.28s3.33,.41,4.2,1.28c1.03,1.04,1.02,2.36,1.01,3.24,0,.17,0,.39,0,.56,.21-.06,.53-.19,.77-.28,1.39-.56,4.28-1.73,6.57,2.43,.83,1.5,1.08,2.77,.75,3.88-.42,1.45-1.64,2.11-2.53,2.59-.17,.09-.4,.22-.57,.33,.19,.11,.42,.24,.6,.33,1,.53,2.38,1.26,2.83,2.85,.34,1.2,.06,2.57-.87,4.17-2.59,4.47-5.35,3.07-6.67,2.4-.15-.07-.34-.17-.49-.24-.02,.2-.02,.48-.02,.69,0,.89-.01,2.11-.88,3.15-.9,1.08-2.38,1.59-4.68,1.61-.04,0-.08,0-.12,0Zm-5.09-8.52c.51,0,1.03,.12,1.55,.46,1.5,.96,1.44,2.57,1.41,3.53,0,.29-.03,.9,.06,.99,.01,.01,.38,.37,2.16,.35,1.83-.01,2.21-.41,2.24-.45,.13-.16,.14-.7,.14-1.14,0-1.01,.02-2.55,1.47-3.48,1.44-.93,2.84-.22,3.68,.21,.4,.2,.85,.43,1.09,.39,.09-.02,.58-.16,1.38-1.54,.67-1.15,.59-1.61,.57-1.69-.08-.29-.73-.63-1.26-.91-1-.53-2.5-1.33-2.5-3.1,0-1.87,1.53-2.7,2.45-3.19,.35-.19,.94-.51,.99-.68,0-.01,.1-.38-.48-1.44-.45-.81-.9-1.31-1.25-1.37-.32-.06-.83,.15-1.33,.36-.98,.39-2.31,.93-3.69,.12-1.5-.89-1.48-2.45-1.48-3.39,0-.31,0-.87-.08-.97-.01-.01-.35-.34-1.93-.34s-1.95,.32-1.97,.34c-.08,.08-.07,.64-.07,.88,0,.85,.02,2.44-1.48,3.29-1.5,.85-2.86-.08-3.59-.58-.27-.18-.76-.51-.9-.49-.02,0-.52,.13-1.42,1.62-.85,1.42-.76,1.98-.71,2.11,.11,.3,.6,.64,1.07,.96,.9,.62,2.26,1.56,2.26,3.37,0,2.03-1.92,2.46-2.75,2.65-.28,.06-.79,.18-.92,.29-.02,.07-.15,.58,.42,2.06,.61,1.6,1.1,1.84,1.15,1.86,.24,.1,.89-.2,1.36-.42,.62-.29,1.45-.67,2.34-.67Z"/>
    </g>
  </g>
</svg>