<svg width="29" height="30" viewBox="0 0 29 30" fill="none" xmlns="http://www.w3.org/2000/svg">
<path d="M28.3521 18.6048L25.7755 17.1169C26.0356 15.7137 26.0356 14.2742 25.7755 12.871L28.3521 11.3831C28.6484 11.2137 28.7815 10.8629 28.6847 10.5363C28.0134 8.38309 26.8702 6.43552 25.3763 4.81455C25.1464 4.56657 24.7714 4.50609 24.4811 4.67544L21.9045 6.16334C20.8219 5.23189 19.5759 4.51214 18.2271 4.04036V1.07062C18.2271 0.731909 17.9912 0.435539 17.6586 0.362959C15.4388 -0.133007 13.1646 -0.108814 11.0538 0.362959C10.7211 0.435539 10.4852 0.731909 10.4852 1.07062V4.04641C9.14247 4.52423 7.89651 5.24399 6.8078 6.16939L4.23725 4.68149C3.94088 4.51214 3.57193 4.56657 3.34209 4.8206C1.84815 6.43552 0.705005 8.38309 0.0336361 10.5424C-0.0691861 10.869 0.0699263 11.2198 0.366296 11.3891L2.9429 12.877C2.68282 14.2802 2.68282 15.7198 2.9429 17.123L0.366296 18.6109C0.0699263 18.7802 -0.0631377 19.131 0.0336361 19.4576C0.705005 21.6109 1.84815 23.5584 3.34209 25.1794C3.57193 25.4274 3.94693 25.4879 4.23725 25.3185L6.81385 23.8306C7.89651 24.7621 9.14247 25.4818 10.4913 25.9536V28.9294C10.4913 29.2681 10.7271 29.5645 11.0598 29.637C13.2796 30.133 15.5537 30.1088 17.6646 29.637C17.9973 29.5645 18.2332 29.2681 18.2332 28.9294V25.9536C19.5759 25.4758 20.8219 24.756 21.9106 23.8306L24.4872 25.3185C24.7835 25.4879 25.1525 25.4334 25.3823 25.1794C26.8763 23.5645 28.0194 21.6169 28.6908 19.4576C28.7815 19.125 28.6484 18.7742 28.3521 18.6048ZM14.3562 19.8326C11.6888 19.8326 9.51747 17.6613 9.51747 14.994C9.51747 12.3266 11.6888 10.1553 14.3562 10.1553C17.0235 10.1553 19.1949 12.3266 19.1949 14.994C19.1949 17.6613 17.0235 19.8326 14.3562 19.8326Z" fill="#424242"/>
</svg>
