<?xml version="1.0" encoding="UTF-8"?>
<svg id="_레이어_2" data-name="레이어 2" xmlns="http://www.w3.org/2000/svg" viewBox="0 0 167.65 171.63">
  <defs>
    <style>
      .cls-1 {
        fill: #222;
      }
    </style>
  </defs>
  <g id="_최종" data-name="최종">
    <g>
      <path class="cls-1" d="M37.21,148.01H16.05c-6.29,0-11.41-5.12-11.41-11.41V11.41C4.64,5.12,9.76,0,16.05,0h21.16c6.29,0,11.41,5.12,11.41,11.41v125.19c0,6.29-5.12,11.41-11.41,11.41ZM16.05,10c-.78,0-1.41,.63-1.41,1.41v125.19c0,.78,.63,1.41,1.41,1.41h21.16c.78,0,1.41-.63,1.41-1.41V11.41c0-.78-.63-1.41-1.41-1.41H16.05Z"/>
      <path class="cls-1" d="M95.39,148.01h-23.13c-5.75,0-10.42-4.67-10.42-10.42V49.7c0-5.75,4.67-10.42,10.42-10.42h23.13c5.75,0,10.42,4.67,10.42,10.42v87.89c0,5.75-4.67,10.42-10.42,10.42Zm-23.13-98.73c-.23,0-.42,.19-.42,.42v87.89c0,.23,.19,.42,.42,.42h23.13c.23,0,.42-.19,.42-.42V49.7c0-.23-.19-.42-.42-.42h-23.13Z"/>
      <path class="cls-1" d="M153.65,148.01h-25.27c-5.16,0-9.35-4.2-9.35-9.35v-54.99c0-5.16,4.2-9.35,9.35-9.35h25.27c5.16,0,9.35,4.2,9.35,9.35v54.99c0,5.16-4.2,9.35-9.35,9.35Zm-24.62-10h23.97v-53.7h-23.97v53.7Z"/>
      <path class="cls-1" d="M162.65,171.63H5c-2.76,0-5-2.24-5-5s2.24-5,5-5H162.65c2.76,0,5,2.24,5,5s-2.24,5-5,5Z"/>
    </g>
  </g>
</svg>