<svg width="37" height="30" viewBox="0 0 37 30" fill="none" xmlns="http://www.w3.org/2000/svg">
<path d="M36.075 12.025H32.375V8.325C32.375 7.81625 31.9587 7.4 31.45 7.4H29.6C29.0912 7.4 28.675 7.81625 28.675 8.325V12.025H24.975C24.4662 12.025 24.05 12.4412 24.05 12.95V14.8C24.05 15.3088 24.4662 15.725 24.975 15.725H28.675V19.425C28.675 19.9338 29.0912 20.35 29.6 20.35H31.45C31.9587 20.35 32.375 19.9338 32.375 19.425V15.725H36.075C36.5838 15.725 37 15.3088 37 14.8V12.95C37 12.4412 36.5838 12.025 36.075 12.025ZM12.95 14.8C17.0373 14.8 20.35 11.4873 20.35 7.4C20.35 3.31266 17.0373 0 12.95 0C8.86266 0 5.55 3.31266 5.55 7.4C5.55 11.4873 8.86266 14.8 12.95 14.8ZM18.13 16.65H17.1645C15.8811 17.2397 14.4531 17.575 12.95 17.575C11.4469 17.575 10.0247 17.2397 8.73547 16.65H7.77C3.48031 16.65 0 20.1303 0 24.42V26.825C0 28.357 1.24297 29.6 2.775 29.6H23.125C24.657 29.6 25.9 28.357 25.9 26.825V24.42C25.9 20.1303 22.4197 16.65 18.13 16.65Z" fill="black"/>
</svg>
