<?xml version="1.0" encoding="UTF-8"?>
<svg id="_레이어_2" data-name="레이어 2" xmlns="http://www.w3.org/2000/svg" viewBox="0 0 181.98 181.63">
  <defs>
    <style>
      .cls-1 {
        fill: #222;
      }
    </style>
  </defs>
  <g id="_최종" data-name="최종">
    <g>
      <path class="cls-1" d="M10,181.42c-2.64,0-5.19-1.05-7.07-2.93-2.05-2.05-3.11-4.89-2.9-7.78l2.85-40.28c.17-2.4,1.2-4.66,2.9-6.37L123.42,6.43c4.14-4.14,9.66-6.43,15.52-6.43s11.37,2.28,15.52,6.43l20.54,20.54c4.14,4.14,6.43,9.66,6.43,15.52s-2.28,11.37-6.43,15.52L57.35,175.65c-1.7,1.7-3.96,2.73-6.37,2.9l-40.28,2.85c-.24,.02-.47,.02-.71,.02Zm40.28-12.85h0Zm-27.72-33l-1.77,25.06,25.06-1.77L160.86,43.86c.47-.47,.57-1.01,.57-1.38s-.1-.9-.57-1.37l-20.54-20.54c-.47-.47-1.01-.57-1.38-.57s-.9,.1-1.37,.57L22.56,135.58Z"/>
      <path class="cls-1" d="M171.98,181.63H87.62c-5.52,0-10-4.48-10-10s4.48-10,10-10h84.36c5.52,0,10,4.48,10,10s-4.48,10-10,10Z"/>
      <path class="cls-1" d="M146.73,81.72c-2.56,0-5.12-.98-7.07-2.93l-37-37c-3.91-3.91-3.91-10.24,0-14.14,3.91-3.9,10.24-3.9,14.14,0l37,37c3.91,3.91,3.91,10.24,0,14.14-1.95,1.95-4.51,2.93-7.07,2.93Z"/>
    </g>
  </g>
</svg>